<?xml version="1.0" encoding="UTF-8"?>
<!--
Copyright (C) 2009/2010/2011 Ulrich Apel.
This work is distributed under the conditions of the Creative Commons
Attribution-Share Alike 3.0 Licence. This means you are free:
* to Share - to copy, distribute and transmit the work
* to Remix - to adapt the work

Under the following conditions:
* Attribution. You must attribute the work by stating your use of KanjiVG in
  your own copyright header and linking to KanjiVG's website
  (http://kanjivg.tagaini.net)
* Share Alike. If you alter, transform, or build upon this work, you may
  distribute the resulting work only under the same or similar license to this
  one.

See http://creativecommons.org/licenses/by-sa/3.0/ for more details.
-->
<!DOCTYPE svg PUBLIC "-//W3C//DTD SVG 1.0//EN" "http://www.w3.org/TR/2001/REC-SVG-20010904/DTD/svg10.dtd" [
<!ATTLIST g
xmlns:kvg CDATA #FIXED "http://kanjivg.tagaini.net"
kvg:element CDATA #IMPLIED
kvg:variant CDATA #IMPLIED
kvg:partial CDATA #IMPLIED
kvg:original CDATA #IMPLIED
kvg:part CDATA #IMPLIED
kvg:number CDATA #IMPLIED
kvg:tradForm CDATA #IMPLIED
kvg:radicalForm CDATA #IMPLIED
kvg:position CDATA #IMPLIED
kvg:radical CDATA #IMPLIED
kvg:phon CDATA #IMPLIED >
<!ATTLIST path
xmlns:kvg CDATA #FIXED "http://kanjivg.tagaini.net"
kvg:type CDATA #IMPLIED >
]>
<!-- enhanced -->
<svg xmlns="http://www.w3.org/2000/svg" width="109" height="109" viewBox="0 0 109 109">
<g id="kvg:StrokePaths_056fd" style="fill:none;stroke-width:4;stroke-linecap:round;stroke-linejoin:round;">
<g id="kvg:056fd" kvg:element="国">
	<g id="kvg:056fd-g1" kvg:element="囗" kvg:part="1" kvg:position="kamae" kvg:radical="general">
		<path id="kvg:056fd-s1" kvg:type="㇑" d="M19,16.82c1.09,1.09,1.61,2.51,1.61,4.41c0,14.65-0.22,44.9-0.22,71.53c0,1.95-0.06,3.86-0.09,5.75" stroke="#d82f2f"/>
		<path id="kvg:056fd-s2" kvg:type="㇕a" d="M21.52,18.67C41.38,16.75,74.03,13.5,85,13.5c3.38,0,5,1.85,5,5.25c0,15.36-0.04,47.89-0.08,70.62c0,1.68,0,3.31,0,4.88" stroke="#d8a02f"/>
	</g>
	<g id="kvg:056fd-g2" kvg:element="玉" kvg:phon="或V">
		<g id="kvg:056fd-g3" kvg:element="王" kvg:original="玉" kvg:partial="true">
			<path id="kvg:056fd-s3" kvg:type="㇐" d="M35.12,33.88c1.32,0.28,4.2,0.44,5.51,0.28c10.47-1.29,20.62-2.54,28.62-3.13c2.02-0.15,3.88-0.19,5.56,0.04" stroke="#9fd82f"/>
			<path id="kvg:056fd-s4" kvg:type="㇑a" d="M52.8,34.89c0.96,0.97,1.47,2.48,1.47,3.81c0,3.99-0.13,24.74-0.09,33.55" stroke="#2fd830"/>
			<path id="kvg:056fd-s5" kvg:type="㇐" d="M37.58,52.16c1.79,0.22,3.41,0.14,5.36-0.08c7.56-0.83,17.56-1.99,25.38-2.8c1.25-0.13,4.02-0.15,5.89,0.17" stroke="#2fd8a1"/>
			<path id="kvg:056fd-s6" kvg:type="㇐" d="M31.08,75.14c1.54,0.36,3.85,0.28,5.19,0.16c9.98-0.92,25.85-2.67,37.03-3.54c2.15-0.17,5.04-0.18,6.12,0.13" stroke="#2f9ed8"/>
		</g>
		<g id="kvg:056fd-g4" kvg:element="丶">
			<path id="kvg:056fd-s7" kvg:type="㇔" d="M67.75,56.62c3,1.75,6.12,5.12,8,8.38" stroke="#312fd8"/>
		</g>
	</g>
	<g id="kvg:056fd-g5" kvg:element="囗" kvg:part="2" kvg:position="kamae" kvg:radical="general">
		<path id="kvg:056fd-s8" kvg:type="㇐a" d="M21.5,93.01c14.25-0.51,48.38-1.89,67-2.51" stroke="#a22fd8"/>
	</g>
</g>
</g>
<g id="kvg:StrokeNumbers_056fd" style="font-size:7;fill:#dc2626;font-weight:bold;font-family:sans-serif;">
	<text transform="matrix(1 0 0 1 12.50 25.63)" style="paint-order:stroke;stroke:#ffffff;stroke-width:1.5;">1</text>
	<text transform="matrix(1 0 0 1 22.50 14.50)" style="paint-order:stroke;stroke:#ffffff;stroke-width:1.5;">2</text>
	<text transform="matrix(1 0 0 1 27.75 35.50)" style="paint-order:stroke;stroke:#ffffff;stroke-width:1.5;">3</text>
	<text transform="matrix(1 0 0 1 45.75 43.50)" style="paint-order:stroke;stroke:#ffffff;stroke-width:1.5;">4</text>
	<text transform="matrix(1 0 0 1 30.50 54.13)" style="paint-order:stroke;stroke:#ffffff;stroke-width:1.5;">5</text>
	<text transform="matrix(1 0 0 1 29.25 70.63)" style="paint-order:stroke;stroke:#ffffff;stroke-width:1.5;">6</text>
	<text transform="matrix(1 0 0 1 77.25 60.13)" style="paint-order:stroke;stroke:#ffffff;stroke-width:1.5;">7</text>
	<text transform="matrix(1 0 0 1 25.50 88.63)" style="paint-order:stroke;stroke:#ffffff;stroke-width:1.5;">8</text>
</g>
</svg>
