<?xml version="1.0" encoding="UTF-8"?>
<!--
Copyright (C) 2009/2010/2011 Ulrich Apel.
This work is distributed under the conditions of the Creative Commons
Attribution-Share Alike 3.0 Licence. This means you are free:
* to Share - to copy, distribute and transmit the work
* to Remix - to adapt the work

Under the following conditions:
* Attribution. You must attribute the work by stating your use of KanjiVG in
  your own copyright header and linking to KanjiVG's website
  (http://kanjivg.tagaini.net)
* Share Alike. If you alter, transform, or build upon this work, you may
  distribute the resulting work only under the same or similar license to this
  one.

See http://creativecommons.org/licenses/by-sa/3.0/ for more details.
-->
<!DOCTYPE svg PUBLIC "-//W3C//DTD SVG 1.0//EN" "http://www.w3.org/TR/2001/REC-SVG-20010904/DTD/svg10.dtd" [
<!ATTLIST g
xmlns:kvg CDATA #FIXED "http://kanjivg.tagaini.net"
kvg:element CDATA #IMPLIED
kvg:variant CDATA #IMPLIED
kvg:partial CDATA #IMPLIED
kvg:original CDATA #IMPLIED
kvg:part CDATA #IMPLIED
kvg:number CDATA #IMPLIED
kvg:tradForm CDATA #IMPLIED
kvg:radicalForm CDATA #IMPLIED
kvg:position CDATA #IMPLIED
kvg:radical CDATA #IMPLIED
kvg:phon CDATA #IMPLIED >
<!ATTLIST path
xmlns:kvg CDATA #FIXED "http://kanjivg.tagaini.net"
kvg:type CDATA #IMPLIED >
]>
<!-- enhanced -->
<svg xmlns="http://www.w3.org/2000/svg" width="109" height="109" viewBox="0 0 109 109">
<g id="kvg:StrokePaths_06240" style="fill:none;stroke-width:4;stroke-linecap:round;stroke-linejoin:round;">
<g id="kvg:06240" kvg:element="所">
	<g id="kvg:06240-g1" kvg:element="戸" kvg:position="left" kvg:radical="general" kvg:phon="戸">
		<path id="kvg:06240-s1" kvg:type="㇐" d="M16.17,23.74c1.21,0.38,2.82,0.41,4.38,0.27c7.08-0.64,18.2-2.51,24.54-3.61c1.92-0.33,3.53-0.66,5.41-0.49" stroke="#d82f2f"/>
		<path id="kvg:06240-s2" kvg:type="㇕c" d="M18,40.62c1.25,0.5,2.7,0.45,3.86,0.29c7.62-1.03,16.15-2.68,20.88-3.26c2.26-0.28,3.64,1.6,3.4,3.11c-0.71,4.48-2.07,8.18-3.22,15.72" stroke="#d8a02f"/>
		<path id="kvg:06240-s3" kvg:type="㇐b" d="M21.47,59.99c5.64-0.64,13.18-1.84,20.53-2.69c1.16-0.13,2.38-0.18,3.49-0.12" stroke="#9fd82f"/>
		<path id="kvg:06240-s4" kvg:type="㇒" d="M19.86,41.4c0.68,0.68,0.93,1.6,0.93,2.73c0,22.5-0.54,34.37-7.04,44.12" stroke="#2fd830"/>
	</g>
	<g id="kvg:06240-g2" kvg:element="斤" kvg:position="right">
		<path id="kvg:06240-s5" kvg:type="㇒" d="M79.5,11.88c-0.13,1.38-0.51,2.68-1.56,3.67C73.88,19.38,68.5,24,59.62,28.75" stroke="#2fd8a1"/>
		<path id="kvg:06240-s6" kvg:type="㇒" d="M56.44,30.38c1.15,1.15,1.47,2.63,1.56,4.65c1.12,25.22-2.51,40.22-10.76,48.22" stroke="#2f9ed8"/>
		<path id="kvg:06240-s7" kvg:type="㇐" d="M59.77,42.69c2.35,0.06,4.31-0.34,5.97-0.63c7.51-1.31,16.88-2.56,27.37-4.46c1.65-0.3,3.96-0.46,5.02-0.25" stroke="#312fd8"/>
		<path id="kvg:06240-s8" kvg:type="㇑" d="M77.1,43.3c0.93,0.93,1.65,2.94,1.65,4.26c0,2.43,0.05,31.26,0.06,45.94c0,2.33,0,4.3,0,5.75" stroke="#a22fd8"/>
	</g>
</g>
</g>
<g id="kvg:StrokeNumbers_06240" style="font-size:7;fill:#dc2626;font-weight:bold;font-family:sans-serif;">
	<text transform="matrix(1 0 0 1 10.50 25.63)" style="paint-order:stroke;stroke:#ffffff;stroke-width:1.5;">1</text>
	<text transform="matrix(1 0 0 1 20.50 37.50)" style="paint-order:stroke;stroke:#ffffff;stroke-width:1.5;">2</text>
	<text transform="matrix(1 0 0 1 25.50 56.50)" style="paint-order:stroke;stroke:#ffffff;stroke-width:1.5;">3</text>
	<text transform="matrix(1 0 0 1 12.75 48.13)" style="paint-order:stroke;stroke:#ffffff;stroke-width:1.5;">4</text>
	<text transform="matrix(1 0 0 1 70.50 12.50)" style="paint-order:stroke;stroke:#ffffff;stroke-width:1.5;">5</text>
	<text transform="matrix(1 0 0 1 50.50 38.50)" style="paint-order:stroke;stroke:#ffffff;stroke-width:1.5;">6</text>
	<text transform="matrix(1 0 0 1 63.50 39.50)" style="paint-order:stroke;stroke:#ffffff;stroke-width:1.5;">7</text>
	<text transform="matrix(1 0 0 1 70.50 51.50)" style="paint-order:stroke;stroke:#ffffff;stroke-width:1.5;">8</text>
</g>
</svg>
