<?xml version="1.0" encoding="UTF-8"?>
<!--
Copyright (C) 2009/2010/2011 Ulrich Apel.
This work is distributed under the conditions of the Creative Commons
Attribution-Share Alike 3.0 Licence. This means you are free:
* to Share - to copy, distribute and transmit the work
* to Remix - to adapt the work

Under the following conditions:
* Attribution. You must attribute the work by stating your use of KanjiVG in
  your own copyright header and linking to KanjiVG's website
  (http://kanjivg.tagaini.net)
* Share Alike. If you alter, transform, or build upon this work, you may
  distribute the resulting work only under the same or similar license to this
  one.

See http://creativecommons.org/licenses/by-sa/3.0/ for more details.
-->
<!DOCTYPE svg PUBLIC "-//W3C//DTD SVG 1.0//EN" "http://www.w3.org/TR/2001/REC-SVG-20010904/DTD/svg10.dtd" [
<!ATTLIST g
xmlns:kvg CDATA #FIXED "http://kanjivg.tagaini.net"
kvg:element CDATA #IMPLIED
kvg:variant CDATA #IMPLIED
kvg:partial CDATA #IMPLIED
kvg:original CDATA #IMPLIED
kvg:part CDATA #IMPLIED
kvg:number CDATA #IMPLIED
kvg:tradForm CDATA #IMPLIED
kvg:radicalForm CDATA #IMPLIED
kvg:position CDATA #IMPLIED
kvg:radical CDATA #IMPLIED
kvg:phon CDATA #IMPLIED >
<!ATTLIST path
xmlns:kvg CDATA #FIXED "http://kanjivg.tagaini.net"
kvg:type CDATA #IMPLIED >
]>
<!-- enhanced -->
<svg xmlns="http://www.w3.org/2000/svg" width="109" height="109" viewBox="0 0 109 109">
<g id="kvg:StrokePaths_08abf" style="fill:none;stroke-width:4;stroke-linecap:round;stroke-linejoin:round;">
<g id="kvg:08abf" kvg:element="調">
	<g id="kvg:08abf-g1" kvg:element="言" kvg:position="left" kvg:radical="general">
		<path id="kvg:08abf-s1" kvg:type="㇔" d="M23.12,15.62c2.43,1.43,6.27,5.89,6.88,8.12" stroke="#d82f2f"/>
		<path id="kvg:08abf-s2" kvg:type="㇐" d="M11.12,33.08c1.51,0.56,3.69,0.25,5.26,0.13c6.51-0.49,13.87-1.33,19.48-2.35c1.77-0.32,3.89-0.48,5.49-0.19" stroke="#d8682f"/>
		<path id="kvg:08abf-s3" kvg:type="㇐" d="M17.23,46.81c1.09,0.35,2.54,0.15,3.67,0.05c4.06-0.36,9.18-1.45,12.49-2.06c1.24-0.23,2.51-0.29,3.76-0.05" stroke="#d8a02f"/>
		<path id="kvg:08abf-s4" kvg:type="㇐" d="M17.48,59.33c1.09,0.37,2.76,0.14,3.89,0.04c3.35-0.28,9.19-1.22,12.04-1.83c1.33-0.28,2.77-0.35,4.12-0.08" stroke="#d8d82f"/>
		<g id="kvg:08abf-g2" kvg:element="口">
			<path id="kvg:08abf-s5" kvg:type="㇑" d="M16.64,72.15c0.79,0.79,1.27,1.99,1.32,2.83c0.71,3.51,1.31,8.41,2,13.15c0.18,1.23,0.36,2.44,0.55,3.62" stroke="#9fd82f"/>
			<path id="kvg:08abf-s6" kvg:type="㇕b" d="M18.31,73.12c6.44-0.89,12.23-2.1,18.17-3c1.49-0.22,2.64,1.29,2.43,2.31c-0.89,4.25-1.66,6.72-3.24,13.78" stroke="#67d82f"/>
			<path id="kvg:08abf-s7" kvg:type="㇐b" d="M21.22,89.05c4.1-0.46,8.02-1.03,13.18-1.7c0.88-0.12,1.8-0.23,2.77-0.35" stroke="#2fd830"/>
		</g>
	</g>
	<g id="kvg:08abf-g3" kvg:element="周" kvg:position="right" kvg:phon="周">
		<g id="kvg:08abf-g4" kvg:element="冂" kvg:variant="true">
			<path id="kvg:08abf-s8" kvg:type="㇒/㇑" d="M50.38,21.13c0.75,0.75,1.39,1.99,1.42,3.48C52.5,63.12,50,80.25,39.5,93.25" stroke="#2fd869"/>
			<path id="kvg:08abf-s9" kvg:type="㇆a" d="M52.6,22.85c5.93-0.84,28.45-3.6,35.02-4.43c4.26-0.54,5.7,0.83,5.7,4.59c0,2.42,0.18,62.17,0.18,67.73c0,11.13-5,4.76-8.32,1.34" stroke="#2fd8a1"/>
		</g>
		<g id="kvg:08abf-g5" kvg:element="吉">
			<g id="kvg:08abf-g6" kvg:element="士">
				<path id="kvg:08abf-s10" kvg:type="㇐" d="M59.91,39.07c0.96,0.36,2.71,0.31,3.67,0.22c3.1-0.28,13.36-2.23,17.19-2.4c1.6-0.07,2.56,0.06,3.36,0.23" stroke="#2fd7d8"/>
				<path id="kvg:08abf-s11" kvg:type="㇑a" d="M70.71,26.37c0.69,0.34,1.11,1.65,1.25,2.4c0.14,0.75,0.01,17.58-0.13,22.36" stroke="#2f9ed8"/>
				<path id="kvg:08abf-s12" kvg:type="㇐" d="M57.33,52.75c1.29,0.5,3.02,0.53,4.56,0.34c6.46-0.8,15.56-2.46,21.22-2.8c1.33-0.08,2.79-0.23,4.11,0.05" stroke="#2f66d8"/>
			</g>
			<g id="kvg:08abf-g7" kvg:element="口">
				<path id="kvg:08abf-s13" kvg:type="㇑" d="M60.28,61.82c0.97,0.68,1.68,1.61,2,2.92c0.76,3.19,1.49,6.96,2.34,11.88c0.14,0.83,0.29,1.69,0.45,2.59" stroke="#312fd8"/>
				<path id="kvg:08abf-s14" kvg:type="㇕b" d="M62.29,62.79c6.11-1.27,13.13-2.33,16.96-2.77c2.42-0.28,3.5,1.1,3.21,2.88c-0.58,3.6-1.28,6.46-2.64,11.78" stroke="#6a2fd8"/>
				<path id="kvg:08abf-s15" kvg:type="㇐b" d="M65.26,76.92c3.98-0.53,9.49-1.02,13.5-1.25c1.02-0.06,1.96-0.1,2.77-0.12" stroke="#a22fd8"/>
			</g>
		</g>
	</g>
</g>
</g>
<g id="kvg:StrokeNumbers_08abf" style="font-size:7;fill:#dc2626;font-weight:bold;font-family:sans-serif;">
	<text transform="matrix(1 0 0 1 16.50 15.50)" style="paint-order:stroke;stroke:#ffffff;stroke-width:1.5;">1</text>
	<text transform="matrix(1 0 0 1 3.50 34.50)" style="paint-order:stroke;stroke:#ffffff;stroke-width:1.5;">2</text>
	<text transform="matrix(1 0 0 1 10.50 48.13)" style="paint-order:stroke;stroke:#ffffff;stroke-width:1.5;">3</text>
	<text transform="matrix(1 0 0 1 10.25 61.50)" style="paint-order:stroke;stroke:#ffffff;stroke-width:1.5;">4</text>
	<text transform="matrix(1 0 0 1 10.50 79.50)" style="paint-order:stroke;stroke:#ffffff;stroke-width:1.5;">5</text>
	<text transform="matrix(1 0 0 1 19.50 69.50)" style="paint-order:stroke;stroke:#ffffff;stroke-width:1.5;">6</text>
	<text transform="matrix(1 0 0 1 23.50 85.63)" style="paint-order:stroke;stroke:#ffffff;stroke-width:1.5;">7</text>
	<text transform="matrix(1 0 0 1 44.25 30.50)" style="paint-order:stroke;stroke:#ffffff;stroke-width:1.5;">8</text>
	<text transform="matrix(1 0 0 1 52.50 19.50)" style="paint-order:stroke;stroke:#ffffff;stroke-width:1.5;">9</text>
	<text transform="matrix(1 0 0 1 57.75 36.50)" style="paint-order:stroke;stroke:#ffffff;stroke-width:1.5;">10</text>
	<text transform="matrix(1 0 0 1 74.50 30.13)" style="paint-order:stroke;stroke:#ffffff;stroke-width:1.5;">11</text>
	<text transform="matrix(1 0 0 1 56.50 50.50)" style="paint-order:stroke;stroke:#ffffff;stroke-width:1.5;">12</text>
	<text transform="matrix(1 0 0 1 53.25 70.50)" style="paint-order:stroke;stroke:#ffffff;stroke-width:1.5;">13</text>
	<text transform="matrix(1 0 0 1 61.50 60.13)" style="paint-order:stroke;stroke:#ffffff;stroke-width:1.5;">14</text>
	<text transform="matrix(1 0 0 1 67.50 73.63)" style="paint-order:stroke;stroke:#ffffff;stroke-width:1.5;">15</text>
</g>
</svg>
